<svg xmlns="http://www.w3.org/2000/svg" version="1.1" xmlns:xlink="http://www.w3.org/1999/xlink" width="1500" height="1500" viewBox="0 0 1500 1500"><rect width="1500" height="1500" x="0" y="0" id="background" stroke="transparent" fill="#ffffff"></rect><svg xml:space="preserve" width="1000" height="1000" data-version="2" data-id="lg_OISMEGJIL37y9ynyVu" viewBox="0 0 566 363" x="250" y="250"><rect width="100%" height="100%" fill="transparent"></rect><path d="M206.165 157.95q.59 2.35.59 5.88 0 3.38-.59 5.88.59 2.35.59 5.88 0 3.38-.59 5.88h-4.41q.59 2.35.59 5.88 0 3.38-.59 5.88h-4.41q.59 2.35.59 5.88 0 3.38-.59 5.88h-2.94q.59 2.35.59 5.88 0 3.38-.59 5.88h-5.88q.59 2.35.59 5.88 0 3.38-.59 5.88h-11.76q-.59-2.5-.59-5.88 0-3.53.59-5.88h-5.88q-.59-2.5-.59-5.88 0-3.53.59-5.88h-2.94q-.59-2.5-.59-5.88 0-3.53.59-5.88h-4.41q-.59-2.5-.59-5.88 0-3.53.59-5.88h-4.41q-.59-2.5-.59-5.88 0-3.53.59-5.88-.59-2.5-.59-5.88 0-3.53.59-5.88-.59-2.5-.59-5.88 0-3.53.59-5.88h11.76q.59 2.35.59 5.88 0 3.38-.59 5.88.59 2.35.59 5.88 0 3.38-.59 5.88.59 2.35.59 5.88 0 3.38-.59 5.88h4.41q.59 2.35.59 5.88 0 3.38-.59 5.88h4.41q.59 2.35.59 5.88 0 3.38-.59 5.88h5.88q-.59-2.5-.59-5.88 0-3.53.59-5.88h4.41q-.59-2.5-.59-5.88 0-3.53.59-5.88h4.41q-.59-2.5-.59-5.88 0-3.53.59-5.88-.59-2.5-.59-5.88 0-3.53.59-5.88-.59-2.5-.59-5.88 0-3.53.59-5.88h11.76q.59 2.35.59 5.88 0 3.38-.59 5.88"></path><rect width="48.22" height="82.32" x="-24.11" y="-41.16" fill="none" rx="0" ry="0" transform="translate(183.15 187.85)"></rect><path d="M264.965 216.75q.59 2.35.59 5.88 0 3.38-.59 5.88h-11.76q-.59-2.5-.59-5.88 0-3.53.59-5.88h-5.88q-.59-2.5-.59-5.88 0-3.53.59-5.88h-17.64q.59 2.35.59 5.88 0 3.38-.59 5.88h17.64q.59 2.35.59 5.88 0 3.38-.59 5.88h-23.52q-.59-2.5-.59-5.88 0-3.53.59-5.88h-5.88q-.59-2.5-.59-5.88 0-3.53.59-5.88h5.88q-.59-2.5-.59-5.88 0-3.53.59-5.88h23.52q-.59-2.5-.59-5.88 0-3.53.59-5.88h-20.58q-.59-2.5-.59-5.88 0-3.53.59-5.88h26.46q.59 2.35.59 5.88 0 3.38-.59 5.88h5.88q.59 2.35.59 5.88 0 3.38-.59 5.88.59 2.35.59 5.88 0 3.38-.59 5.88.59 2.35.59 5.88 0 3.38-.59 5.88z"></path><rect width="48.22" height="58.8" x="-24.11" y="-29.4" fill="none" rx="0" ry="0" transform="translate(241.94 199.61)"></rect><path d="M293.485 210.87q0 3.38-.59 5.88h14.7q.59 2.35.59 5.88 0 3.38-.59 5.88h-23.52q-.59-2.5-.59-5.88 0-3.53.59-5.88h-7.35q-.59-2.5-.59-5.88 0-3.53.59-5.88-.59-2.5-.59-5.88 0-3.53.59-5.88-.59-2.5-.59-5.88 0-3.53.59-5.88-.59-2.5-.59-5.88 0-3.53.59-5.88h11.76q.59 2.35.59 5.88 0 3.38-.59 5.88.59 2.35.59 5.88 0 3.38-.59 5.88.59 2.35.59 5.88 0 3.38-.59 5.88h4.41q.59 2.35.59 5.88m30.28-29.4q.59 2.35.59 5.88 0 3.38-.59 5.88.59 2.35.59 5.88 0 3.38-.59 5.88.59 2.35.59 5.88 0 3.38-.59 5.88.59 2.35.59 5.88 0 3.38-.59 5.88h-11.76q-.59-2.5-.59-5.88 0-3.53.59-5.88h-4.41q-.59-2.5-.59-5.88 0-3.53.59-5.88h4.41q-.59-2.5-.59-5.88 0-3.53.59-5.88-.59-2.5-.59-5.88 0-3.53.59-5.88-.59-2.5-.59-5.88 0-3.53.59-5.88h11.76q.59 2.35.59 5.88 0 3.38-.59 5.88"></path><rect width="48.22" height="58.8" x="-24.11" y="-29.4" fill="none" rx="0" ry="0" transform="translate(300.75 199.61)"></rect><path d="M376.685 216.75q.59 2.35.59 5.88 0 3.38-.59 5.88h-35.28q-.59-2.5-.59-5.88 0-3.53.59-5.88h11.76q-.59-2.5-.59-5.88 0-3.53.59-5.88-.59-2.5-.59-5.88 0-3.53.59-5.88-.59-2.5-.59-5.88 0-3.53.59-5.88-.59-2.5-.59-5.88 0-3.53.59-5.88-.59-2.5-.59-5.88 0-3.53.59-5.88h-8.82q-.59-2.5-.59-5.88 0-3.53.59-5.88h20.58q.59 2.35.59 5.88 0 3.38-.59 5.88.59 2.35.59 5.88 0 3.38-.59 5.88.59 2.35.59 5.88 0 3.38-.59 5.88.59 2.35.59 5.88 0 3.38-.59 5.88.59 2.35.59 5.88 0 3.38-.59 5.88.59 2.35.59 5.88 0 3.38-.59 5.88z"></path><rect width="36.46" height="82.32" x="-18.23" y="-41.16" fill="none" rx="0" ry="0" transform="translate(359.55 187.85)"></rect><path d="M435.485 216.75q.59 2.35.59 5.88 0 3.38-.59 5.88h-23.52q-.59-2.5-.59-5.88 0-3.53.59-5.88h-5.88q-.59-2.5-.59-5.88 0-3.53.59-5.88-.59-2.5-.59-5.88 0-3.53.59-5.88-.59-2.5-.59-5.88 0-3.53.59-5.88h-11.76q-.59-2.5-.59-5.88 0-3.53.59-5.88h11.76q-.59-2.5-.59-5.88 0-3.53.59-5.88-.59-2.5-.59-5.88 0-3.53.59-5.88h11.76q.59 2.35.59 5.88 0 3.38-.59 5.88.59 2.35.59 5.88 0 3.38-.59 5.88h17.64q.59 2.35.59 5.88 0 3.38-.59 5.88h-17.64q.59 2.35.59 5.88 0 3.38-.59 5.88.59 2.35.59 5.88 0 3.38-.59 5.88.59 2.35.59 5.88 0 3.38-.59 5.88Z"></path><rect width="42.34" height="82.32" x="-21.17" y="-41.16" fill="none" rx="0" ry="0" transform="translate(415.4 187.85)"></rect><path d="M500.165 181.47q.59 2.35.59 5.88 0 3.38-.59 5.88.59 2.35.59 5.88 0 3.38-.59 5.88h-4.41q.59 2.35.59 5.88 0 3.38-.59 5.88h-7.35q.59 2.35.59 5.88 0 3.38-.59 5.88h-23.52q-.59-2.5-.59-5.88 0-3.53.59-5.88h-7.35q-.59-2.5-.59-5.88 0-3.53.59-5.88h-4.41q-.59-2.5-.59-5.88 0-3.53.59-5.88-.59-2.5-.59-5.88 0-3.53.59-5.88-.59-2.5-.59-5.88 0-3.53.59-5.88h4.41q-.59-2.5-.59-5.88 0-3.53.59-5.88h7.35q-.59-2.5-.59-5.88 0-3.53.59-5.88h23.52q.59 2.35.59 5.88 0 3.38-.59 5.88h7.35q.59 2.35.59 5.88 0 3.38-.59 5.88h4.41q.59 2.35.59 5.88 0 3.38-.59 5.88m-11.76 23.52q-.59-2.5-.59-5.88 0-3.53.59-5.88-.59-2.5-.59-5.88 0-3.53.59-5.88-.59-2.5-.59-5.88 0-3.53.59-5.88h-4.41q-.59-2.5-.59-5.88 0-3.53.59-5.88h-14.7q.59 2.35.59 5.88 0 3.38-.59 5.88h-4.41q.59 2.35.59 5.88 0 3.38-.59 5.88.59 2.35.59 5.88 0 3.38-.59 5.88.59 2.35.59 5.88 0 3.38-.59 5.88h4.41q.59 2.35.59 5.88 0 3.38-.59 5.88h14.7q-.59-2.5-.59-5.88 0-3.53.59-5.88z"></path><rect width="48.22" height="82.32" x="-24.11" y="-41.16" fill="none" rx="0" ry="0" transform="translate(477.14 187.85)"></rect><path d="M558.965 193.23q.59 2.35.59 5.88 0 3.38-.59 5.88.59 2.35.59 5.88 0 3.38-.59 5.88h-5.88q.59 2.35.59 5.88 0 3.38-.59 5.88h-35.28q-.59-2.5-.59-5.88 0-3.53.59-5.88h-5.88q-.59-2.5-.59-5.88 0-3.53.59-5.88h11.76q.59 2.35.59 5.88 0 3.38-.59 5.88h23.52q-.59-2.5-.59-5.88 0-3.53.59-5.88-.59-2.5-.59-5.88 0-3.53.59-5.88h-29.4q-.59-2.5-.59-5.88 0-3.53.59-5.88h-5.88q-.59-2.5-.59-5.88 0-3.53.59-5.88-.59-2.5-.59-5.88 0-3.53.59-5.88h5.88q-.59-2.5-.59-5.88 0-3.53.59-5.88h35.28q.59 2.35.59 5.88 0 3.38-.59 5.88h5.88q.59 2.35.59 5.88 0 3.38-.59 5.88h-11.76q-.59-2.5-.59-5.88 0-3.53.59-5.88h-23.52q.59 2.35.59 5.88 0 3.38-.59 5.88.59 2.35.59 5.88 0 3.38-.59 5.88h29.4q.59 2.35.59 5.88 0 3.38-.59 5.88z"></path><rect width="48.22" height="82.32" x="-24.11" y="-41.16" fill="none" rx="0" ry="0" transform="translate(535.95 187.85)"></rect><path d="M361.383 73.116V3.533H5.45v355.934h355.934v-69.583h-5.795v63.788H11.244V9.328h344.344v63.788z"></path></svg></svg>